<svg width="19" height="14" viewBox="0 0 19 14" fill="none" xmlns="http://www.w3.org/2000/svg">
<path d="M9.0683 7.91669L9.47924 8.34243L9.91065 7.93745L9.5 7.5L9.91069 7.93742L9.91074 7.93737L9.91087 7.93725L9.91122 7.93692L9.91235 7.93585L9.91627 7.93216L9.93066 7.91854L9.98489 7.86676C10.0321 7.82149 10.1009 7.7549 10.1891 7.66821C10.3654 7.49484 10.6193 7.24097 10.9321 6.91629C12.056 5.74975 15.0696 3.22353 17.5214 1.25195C17.6394 1.33496 17.7889 1.43915 17.9 1.5098V12.2752C17.9 12.9765 17.42 13.4 17 13.4H2.00001C1.58001 13.4 1.1 12.9765 1.1 12.2752V1.57604C1.18819 1.56612 1.29198 1.55756 1.39707 1.55219C1.52295 1.54575 1.63715 1.5446 1.72081 1.54869L1.88882 1.68937C2.06386 1.83604 2.3153 2.04698 2.62071 2.30392C3.23161 2.81786 4.05814 3.5156 4.92107 4.25108C6.66203 5.73491 8.50771 7.33592 9.0683 7.91669ZM2 1L1.61553 1.46041C1.61551 1.46039 1.61549 1.46038 1.61547 1.46036L2 1Z" stroke="#015989" stroke-width="1.2"/>
</svg>
