<svg width="21" height="21" viewBox="0 0 21 21" fill="none" xmlns="http://www.w3.org/2000/svg">
<path d="M19.875 19.0938H19.0938V10.5C19.0937 10.3439 19.0469 10.1913 18.9594 10.062C18.8719 9.93274 18.7477 9.83258 18.6028 9.77445L10.7903 6.64945C10.5979 6.57246 10.3828 6.57506 10.1922 6.65668C10.0017 6.7383 9.85145 6.89226 9.77445 7.08469C9.69746 7.27711 9.70006 7.49225 9.78168 7.68276C9.8633 7.87327 10.0173 8.02355 10.2097 8.10055L17.5312 11.0291V12.8438H12.0625C11.8553 12.8438 11.6566 12.9261 11.5101 13.0726C11.3636 13.2191 11.2812 13.4178 11.2812 13.625C11.2812 13.8322 11.3636 14.0309 11.5101 14.1774C11.6566 14.3239 11.8553 14.4062 12.0625 14.4062H17.5312V15.9688H12.0625C11.8553 15.9688 11.6566 16.0511 11.5101 16.1976C11.3636 16.3441 11.2812 16.5428 11.2812 16.75C11.2812 16.9572 11.3636 17.1559 11.5101 17.3024C11.6566 17.4489 11.8553 17.5312 12.0625 17.5312H17.5312V19.0938H9.65625L8.15359 1.06016C8.13733 0.86485 8.04825 0.682792 7.90403 0.550091C7.75981 0.41739 7.57098 0.34374 7.375 0.34375H4.25C4.05402 0.34374 3.86519 0.41739 3.72097 0.550091C3.57675 0.682792 3.48767 0.86485 3.47141 1.06016L1.96875 19.0938H1.125C0.9178 19.0938 0.719086 19.1761 0.572573 19.3226C0.42606 19.4691 0.34375 19.6678 0.34375 19.875C0.34375 20.0822 0.42606 20.2809 0.572573 20.4274C0.719086 20.5739 0.9178 20.6562 1.125 20.6562H19.875C20.0822 20.6562 20.2809 20.5739 20.4274 20.4274C20.5739 20.2809 20.6562 20.0822 20.6562 19.875C20.6562 19.6678 20.5739 19.4691 20.4274 19.3226C20.2809 19.1761 20.0822 19.0938 19.875 19.0938ZM6.65625 1.90625L6.91664 5.03125H4.70828L4.96875 1.90625H6.65625ZM4.57812 6.59375H7.04688L8.08844 19.0938H3.53656L4.57812 6.59375Z" fill="#015989"/>
</svg>
